<?xml version="1.0" encoding="UTF-8" standalone="no"?><!-- Generator: Gravit.io --><svg xmlns="http://www.w3.org/2000/svg" xmlns:xlink="http://www.w3.org/1999/xlink" style="isolation:isolate" viewBox="0 0 256 256" width="256pt" height="256pt"><g><linearGradient id="_lgradient_0" x1="0.9542566443697029" y1="0.8282640503108905" x2="0.3719999041641533" y2="0.28807145239554877" gradientTransform="matrix(194.369,0,0,159.189,55.163,75.404)" gradientUnits="userSpaceOnUse"><stop offset="0%" stop-opacity="1" style="stop-color:rgb(65,19,93)"/><stop offset="100%" stop-opacity="1" style="stop-color:rgb(220,24,139)"/></linearGradient><path d=" M 167.741 75.404 C 158.592 80.295 148.14 84.109 139.922 89.156 L 219.251 89.156 C 224.308 89.156 228.379 93.226 228.379 98.284 L 228.379 157.334 L 241.448 162.548 L 241.448 95.162 C 241.448 84.216 232.635 75.404 221.69 75.404 L 167.741 75.404 Z  M 68.232 117.97 C 64.426 118.874 60.13 120.206 55.163 121.99 L 55.163 189.111 C 55.163 200.056 63.976 208.866 74.921 208.866 L 195.651 208.866 L 190.169 195.117 L 77.363 195.117 C 72.306 195.117 68.232 191.046 68.232 185.989 L 68.232 117.97 Z  M 181.615 145.216 C 180.695 145.137 179.766 145.462 179.092 146.136 C 178.193 147.035 177.916 148.382 178.387 149.563 L 202.415 209.811 C 202.866 210.943 203.924 211.719 205.14 211.807 C 206.356 211.895 207.515 211.278 208.125 210.222 L 215.927 196.713 L 234.862 215.652 C 235.458 216.248 236.267 216.584 237.11 216.584 C 237.954 216.584 238.765 216.248 239.362 215.652 L 248.602 206.409 C 249.844 205.166 249.841 203.151 248.598 201.909 L 229.663 182.974 L 243.172 175.171 C 244.228 174.562 244.844 173.403 244.757 172.187 C 244.669 170.971 243.893 169.91 242.761 169.458 L 182.522 145.431 C 182.227 145.313 181.921 145.242 181.615 145.216 Z  M 142.66 214.304 C 137.243 214.304 132.874 218.58 132.699 223.953 L 111.485 223.953 C 108.537 223.953 106.165 226.325 106.165 229.273 C 106.165 232.22 108.537 234.593 111.485 234.593 L 185.238 234.593 C 188.186 234.593 190.558 232.22 190.558 229.273 C 190.558 226.325 188.186 223.953 185.238 223.953 L 164.024 223.953 C 163.849 218.58 159.48 214.304 154.064 214.304 L 142.66 214.304 Z " fill="url(#_lgradient_0)"/><linearGradient id="_lgradient_1" x1="0.42344632093807133" y1="-1.7763568394002505e-15" x2="0.6642141171057663" y2="0.5980560501276724" gradientTransform="matrix(160.269,0,0,122.483,6.468,21.407)" gradientUnits="userSpaceOnUse"><stop offset="0%" stop-opacity="1" style="stop-color:rgb(65,19,93)"/><stop offset="100%" stop-opacity="1" style="stop-color:rgb(220,24,139)"/></linearGradient><path d=" M 74.333 21.407 L 6.468 80.922 C 9.966 80.861 13.48 80.829 17.003 80.813 C 18.039 89.379 19.301 97.417 19.669 105.109 C 16.727 106.129 14.753 108.901 14.75 112.015 C 14.752 114.899 16.448 117.513 19.081 118.69 C 17.838 126.566 14.761 134.244 8.395 142.006 L 22.576 143.89 C 23.527 136.15 23.956 127.72 24.12 119.03 C 27.236 118.118 29.378 115.261 29.382 112.015 C 29.382 108.779 27.256 105.927 24.154 105.003 C 24.096 96.852 23.962 88.711 23.86 80.816 C 48.808 80.876 74.178 81.765 98.872 81.964 L 166.737 22.452 C 136.286 22.982 104.791 21.652 74.333 21.407 L 74.333 21.407 Z  M 86.253 41.586 C 88.578 41.586 90.808 42.51 92.452 44.154 C 94.097 45.798 95.02 48.028 95.02 50.354 C 95.02 52.679 94.097 54.909 92.452 56.553 C 90.808 58.198 88.578 59.121 86.253 59.121 C 83.927 59.121 81.697 58.198 80.053 56.553 C 78.409 54.909 77.485 52.679 77.485 50.354 C 77.485 48.028 78.409 45.798 80.053 44.154 C 81.697 42.51 83.927 41.586 86.253 41.586 L 86.253 41.586 Z  M 145.824 48.932 L 102.329 91.131 L 112.921 117.257 C 126.954 92.423 128.262 86.218 159.93 72.922 C 158.223 65.925 159.095 62.105 145.824 48.932 Z  M 102.329 91.131 L 41.724 91.131 C 41.371 109.827 44.658 111.962 48.304 118.173 C 80.292 105.664 85.553 109.207 112.918 117.259 L 102.329 91.131 Z " fill="url(#_lgradient_1)"/><path d=" M 156.718 117.943 C 155.112 116.339 152.509 116.338 150.902 117.943 C 149.296 119.549 149.296 122.153 150.902 123.759 L 160.039 132.896 C 160.842 133.699 161.894 134.101 162.947 134.101 C 163.999 134.101 165.051 133.699 165.854 132.896 C 167.46 131.29 167.46 128.687 165.854 127.081 L 156.718 117.943 Z " fill="rgb(248,144,32)"/><path d=" M 159.814 146.372 C 159.814 144.101 157.973 142.26 155.702 142.26 L 142.78 142.26 C 140.509 142.26 138.667 144.101 138.667 146.372 C 138.667 148.643 140.508 150.484 142.78 150.484 L 155.702 150.484 C 157.973 150.484 159.814 148.643 159.814 146.372 Z " fill="rgb(248,144,32)"/><path d=" M 158.147 159.063 L 149.009 168.201 C 147.403 169.808 147.403 172.411 149.009 174.017 C 149.812 174.82 150.865 175.221 151.917 175.221 C 152.969 175.221 154.022 174.819 154.824 174.017 L 163.962 164.879 C 165.568 163.273 165.568 160.67 163.962 159.063 C 162.357 157.459 159.754 157.458 158.147 159.063 L 158.147 159.063 Z " fill="rgb(248,144,32)"/><path d=" M 179.329 126.856 C 181.6 126.856 183.441 125.015 183.441 122.743 L 183.441 109.82 C 183.441 107.549 181.6 105.708 179.329 105.708 C 177.058 105.708 175.217 107.549 175.217 109.82 L 175.217 122.744 C 175.217 125.015 177.058 126.856 179.329 126.856 Z " fill="rgb(248,144,32)"/><path d=" M 194.926 132.208 C 195.979 132.208 197.031 131.806 197.834 131.004 L 206.971 121.867 C 208.577 120.261 208.577 117.657 206.971 116.051 C 205.365 114.446 202.761 114.446 201.155 116.051 L 192.018 125.188 C 190.412 126.794 190.412 129.398 192.018 131.004 C 192.822 131.807 193.874 132.208 194.926 132.208 Z " fill="rgb(248,144,32)"/></g></svg>