<?xml version="1.0" encoding="UTF-8" standalone="no"?><!-- Generator: Gravit.io --><svg xmlns="http://www.w3.org/2000/svg" xmlns:xlink="http://www.w3.org/1999/xlink" style="isolation:isolate" viewBox="0 0 380 60" width="380pt" height="60pt"><g><g><path d=" M 31.459 5.826 L 31.459 13.788 L 10.385 13.788 L 10.385 26.426 L 26.783 26.426 L 26.783 34.117 L 10.385 34.117 L 10.385 47.025 L 31.459 47.025 L 31.459 54.987 L 0.153 54.987 L 0.153 5.826 L 31.459 5.826 Z " fill="rgb(255,255,255)"/><path d=" M 61.89 54.987 Q 60.094 54.987 59.586 53.361 L 58.807 50.312 Q 56.706 52.615 54.03 54.072 Q 51.387 55.495 47.762 55.495 Q 44.95 55.495 42.612 54.31 Q 40.274 53.124 38.546 50.854 Q 36.852 48.55 35.903 45.229 Q 34.955 41.909 34.955 37.64 Q 34.955 33.744 36.005 30.39 Q 37.089 27.035 39.054 24.596 Q 41.02 22.157 43.798 20.767 Q 46.576 19.378 49.964 19.378 Q 52.81 19.378 54.741 20.225 Q 56.706 21.072 58.299 22.529 L 58.299 4.471 L 67.65 4.471 L 67.65 54.987 L 61.89 54.987 Z  M 50.98 48.245 Q 53.454 48.245 55.114 47.296 Q 56.808 46.314 58.299 44.484 L 58.299 29.136 Q 56.977 27.611 55.419 27.002 Q 53.894 26.392 52.166 26.392 Q 50.472 26.392 49.083 27.035 Q 47.694 27.679 46.678 29.068 Q 45.695 30.424 45.153 32.558 Q 44.611 34.693 44.611 37.64 Q 44.611 40.554 45.051 42.587 Q 45.492 44.62 46.305 45.873 Q 47.152 47.127 48.338 47.703 Q 49.524 48.245 50.98 48.245 L 50.98 48.245 Z " fill="rgb(255,255,255)"/><path d=" M 84.374 20.056 L 84.374 42.248 Q 84.374 45.162 85.696 46.788 Q 87.051 48.38 89.694 48.38 Q 91.659 48.38 93.387 47.533 Q 95.115 46.652 96.673 45.162 L 96.673 20.056 L 106.024 20.056 L 106.024 54.987 L 100.264 54.987 Q 98.469 54.987 97.961 53.361 L 97.351 50.921 Q 95.25 52.988 92.743 54.276 Q 90.27 55.529 86.848 55.529 Q 84.002 55.529 81.765 54.547 Q 79.563 53.564 78.072 51.802 Q 76.582 50.041 75.802 47.601 Q 75.023 45.162 75.023 42.248 L 75.023 20.056 L 84.374 20.056 Z " fill="rgb(255,255,255)"/><path d=" M 124.665 38.081 L 124.665 54.987 L 114.501 54.987 L 114.501 5.826 L 131.102 5.826 Q 136.151 5.826 139.81 7.012 Q 143.503 8.198 145.874 10.332 Q 148.246 12.433 149.364 15.347 Q 150.516 18.26 150.516 21.682 Q 150.516 25.307 149.33 28.323 Q 148.144 31.338 145.739 33.507 Q 143.333 35.675 139.674 36.895 Q 136.015 38.081 131.102 38.081 L 124.665 38.081 Z  M 124.665 30.288 L 131.102 30.288 Q 135.88 30.288 138.082 27.984 Q 140.318 25.68 140.318 21.682 Q 140.318 19.853 139.742 18.362 Q 139.2 16.837 138.048 15.787 Q 136.93 14.703 135.202 14.127 Q 133.474 13.551 131.102 13.551 L 124.665 13.551 L 124.665 30.288 Z " fill="rgb(214,24,137)"/><path d=" M 165.116 4.471 L 165.116 54.987 L 155.764 54.987 L 155.764 4.471 L 165.116 4.471 Z " fill="rgb(214,24,137)"/><path d=" M 196.009 54.987 Q 194.687 54.987 193.976 54.614 Q 193.298 54.242 192.858 53.056 L 192.112 50.854 Q 190.791 52.006 189.537 52.886 Q 188.318 53.733 186.962 54.343 Q 185.641 54.919 184.116 55.224 Q 182.626 55.529 180.796 55.529 Q 178.492 55.529 176.595 54.919 Q 174.697 54.309 173.308 53.123 Q 171.953 51.904 171.208 50.108 Q 170.462 48.312 170.462 45.974 Q 170.462 44.043 171.445 42.146 Q 172.427 40.215 174.799 38.656 Q 177.205 37.064 181.169 36.014 Q 185.167 34.963 191.164 34.828 L 191.164 33.032 Q 191.164 29.746 189.774 28.221 Q 188.385 26.662 185.777 26.662 Q 183.845 26.662 182.558 27.137 Q 181.27 27.577 180.288 28.119 Q 179.339 28.627 178.492 29.102 Q 177.645 29.542 176.527 29.542 Q 175.545 29.542 174.867 29.068 Q 174.223 28.559 173.783 27.882 L 172.123 24.9 Q 175.206 22.122 178.933 20.767 Q 182.659 19.378 186.996 19.378 Q 190.113 19.378 192.553 20.394 Q 195.026 21.411 196.72 23.24 Q 198.448 25.036 199.363 27.543 Q 200.278 30.05 200.278 33.032 L 200.278 54.987 L 196.009 54.987 Z  M 183.71 49.227 Q 186.014 49.227 187.742 48.414 Q 189.47 47.567 191.164 45.839 L 191.164 40.418 Q 187.742 40.554 185.472 40.994 Q 183.202 41.435 181.846 42.113 Q 180.525 42.756 179.949 43.637 Q 179.407 44.484 179.407 45.501 Q 179.407 47.533 180.525 48.38 Q 181.677 49.227 183.71 49.227 L 183.71 49.227 Z " fill="rgb(214,24,137)"/><path d=" M 232.92 27.849 Q 232.513 28.391 232.106 28.696 Q 231.7 28.966 230.955 28.966 Q 230.277 28.966 229.633 28.594 Q 229.023 28.187 228.21 27.747 Q 227.397 27.273 226.279 26.9 Q 225.161 26.493 223.501 26.493 Q 221.4 26.493 219.842 27.272 Q 218.317 28.018 217.301 29.441 Q 216.284 30.864 215.776 32.897 Q 215.302 34.929 215.302 37.47 Q 215.302 42.824 217.436 45.67 Q 219.604 48.516 223.331 48.516 Q 224.619 48.516 225.534 48.312 Q 226.482 48.075 227.16 47.736 Q 227.871 47.397 228.38 46.991 Q 228.888 46.584 229.328 46.246 Q 229.803 45.907 230.243 45.703 Q 230.717 45.466 231.293 45.466 Q 232.378 45.466 232.987 46.279 L 235.664 49.667 Q 234.173 51.395 232.479 52.547 Q 230.785 53.665 228.956 54.343 Q 227.16 54.987 225.296 55.224 Q 223.433 55.495 221.603 55.495 Q 218.385 55.495 215.505 54.309 Q 212.625 53.089 210.457 50.785 Q 208.288 48.481 207.001 45.127 Q 205.747 41.773 205.747 37.47 Q 205.747 33.642 206.865 30.355 Q 207.983 27.069 210.152 24.663 Q 212.32 22.258 215.505 20.902 Q 218.724 19.513 222.925 19.513 Q 226.923 19.513 229.938 20.801 Q 232.953 22.088 235.359 24.528 L 232.92 27.849 Z " fill="rgb(214,24,137)"/><path d=" M 254.882 19.514 Q 258.236 19.514 261.048 20.598 Q 263.894 21.648 265.927 23.681 Q 267.994 25.714 269.112 28.696 Q 270.264 31.643 270.264 35.438 Q 270.264 36.488 270.162 37.166 Q 270.06 37.843 269.823 38.25 Q 269.586 38.657 269.18 38.826 Q 268.773 38.962 268.129 38.962 L 247.157 38.962 Q 247.597 43.874 249.935 46.144 Q 252.307 48.414 256.135 48.414 Q 258.067 48.414 259.456 47.974 Q 260.879 47.5 261.929 46.958 Q 263.013 46.382 263.86 45.941 Q 264.741 45.467 265.588 45.467 Q 266.672 45.467 267.282 46.28 L 269.993 49.668 Q 268.502 51.396 266.706 52.548 Q 264.911 53.666 262.979 54.344 Q 261.048 54.988 259.083 55.225 Q 257.118 55.496 255.288 55.496 Q 251.629 55.496 248.444 54.31 Q 245.294 53.09 242.922 50.752 Q 240.584 48.381 239.229 44.891 Q 237.874 41.401 237.874 36.793 Q 237.874 33.236 239.026 30.085 Q 240.211 26.934 242.414 24.596 Q 244.616 22.259 247.767 20.903 Q 250.918 19.514 254.882 19.514 L 254.882 19.514 Z  M 255.051 26.087 Q 251.697 26.087 249.8 28.018 Q 247.902 29.915 247.326 33.405 L 261.895 33.405 Q 261.895 31.948 261.489 30.627 Q 261.116 29.305 260.269 28.289 Q 259.422 27.273 258.134 26.697 Q 256.847 26.087 255.051 26.087 L 255.051 26.087 Z " fill="rgb(214,24,137)"/><path d=" M 274.679 50.074 Q 274.679 48.956 275.085 47.974 Q 275.526 46.957 276.271 46.246 Q 277.017 45.5 277.999 45.094 Q 279.016 44.654 280.201 44.654 Q 281.353 44.654 282.37 45.094 Q 283.386 45.5 284.132 46.246 Q 284.877 46.957 285.284 47.974 Q 285.724 48.956 285.724 50.074 Q 285.724 51.226 285.284 52.209 Q 284.877 53.191 284.132 53.937 Q 283.386 54.648 282.37 55.055 Q 281.353 55.461 280.201 55.461 Q 279.016 55.461 277.999 55.055 Q 277.017 54.648 276.271 53.937 Q 275.526 53.191 275.085 52.209 Q 274.679 51.226 274.679 50.074 Z " fill="rgb(248,144,32)"/><path d=" M 292.147 54.987 L 292.147 20.056 L 297.906 20.056 Q 299.668 20.056 300.244 21.682 L 300.786 23.952 Q 301.701 23.004 302.65 22.19 Q 303.632 21.377 304.75 20.801 Q 305.868 20.192 307.156 19.853 Q 308.477 19.514 310.002 19.514 Q 313.22 19.514 315.321 21.242 Q 317.422 22.936 318.506 25.782 Q 319.353 24.121 320.573 22.936 Q 321.826 21.716 323.283 20.971 Q 324.774 20.225 326.4 19.886 Q 328.06 19.514 329.72 19.514 Q 332.668 19.514 334.938 20.395 Q 337.208 21.275 338.733 23.003 Q 340.291 24.697 341.104 27.171 Q 341.918 29.644 341.918 32.795 L 341.918 54.987 L 332.566 54.987 L 332.566 32.795 Q 332.566 26.662 327.315 26.662 Q 326.129 26.662 325.113 27.069 Q 324.13 27.442 323.351 28.221 Q 322.605 29 322.165 30.152 Q 321.758 31.304 321.758 32.795 L 321.758 54.987 L 312.407 54.987 L 312.407 32.795 Q 312.407 29.475 311.086 28.085 Q 309.798 26.662 307.257 26.662 Q 305.631 26.662 304.174 27.442 Q 302.751 28.187 301.498 29.542 L 301.498 54.987 L 292.147 54.987 Z " fill="rgb(255,255,255)"/><path d=" M 364.465 19.514 Q 367.819 19.514 370.632 20.598 Q 373.478 21.648 375.51 23.681 Q 377.577 25.714 378.695 28.696 Q 379.847 31.643 379.847 35.438 Q 379.847 36.488 379.746 37.166 Q 379.644 37.843 379.407 38.25 Q 379.17 38.657 378.763 38.826 Q 378.356 38.962 377.713 38.962 L 356.74 38.962 Q 357.181 43.874 359.519 46.144 Q 361.89 48.414 365.719 48.414 Q 367.65 48.414 369.039 47.974 Q 370.462 47.5 371.512 46.958 Q 372.597 46.382 373.444 45.941 Q 374.325 45.467 375.172 45.467 Q 376.256 45.467 376.866 46.28 L 379.576 49.668 Q 378.085 51.396 376.29 52.548 Q 374.494 53.666 372.563 54.344 Q 370.632 54.988 368.666 55.225 Q 366.701 55.496 364.872 55.496 Q 361.213 55.496 358.028 54.31 Q 354.877 53.09 352.505 50.752 Q 350.168 48.381 348.812 44.891 Q 347.457 41.401 347.457 36.793 Q 347.457 33.236 348.609 30.085 Q 349.795 26.934 351.997 24.596 Q 354.199 22.259 357.35 20.903 Q 360.501 19.514 364.465 19.514 L 364.465 19.514 Z  M 364.635 26.087 Q 361.28 26.087 359.383 28.018 Q 357.486 29.915 356.91 33.405 L 371.479 33.405 Q 371.479 31.948 371.072 30.627 Q 370.699 29.305 369.852 28.289 Q 369.005 27.273 367.718 26.697 Q 366.43 26.087 364.635 26.087 L 364.635 26.087 Z " fill="rgb(255,255,255)"/></g></g></svg>